Patient4_TMGait_0pt4_03_right_34_EMG.mot
version=1
nRows=19
nColumns=33
inDegrees=no
endheader
time	1LAddLong	2LGlutMax	3LGlutMed	4LIliopsoas	5LSemiMemb	6LBicFemLong	7LRecFem	8LVastMed	9LVastLat	10LGasMed	11LTibAnt	12lTibPost	13LPeroneusLong	14LSol	15LExtDigLong	16LFlexDigLong	17RAddLong	18RGlutMax	19RGlutMed	20RIliopsoas	21RSemiMemb	22RBicFemLong	23RRecFem	24RVastMed	25RVastLat	26RGasMed	27RTibAnt	28RTibPost	29RPeroneusLong	30RSol	31RExtDigLong	32RFlexDigLong
44.25	0.012207	0.29358	-0.20401	0.001678	0.08316	-0.052185	-0.080566	0.005188	-0.04837	-0.011292	0.10681	-0.002441	-0.034485	0.37643	-0.001068	-0.38956	-0.009613	-0.090942	-0.5246	-0.034637	0.086975	-0.13916	0.25772	0.009308	0.026398	-0.00473	0.39734	-0.005341	-0.13657	-0.054321	0.002136	0.003204
44.251	0.00473	0.24765	0.004578	0.018616	0.024719	-0.039063	-0.028992	-0.00351	-0.06134	-0.003357	0.11871	0.019684	-0.029755	0.46341	0.032806	-0.037994	0.00412	-0.06424	-0.39383	-0.14801	0.077209	-0.12405	0.19653	-0.000458	0.031281	-0.003662	0.2739	-0.005188	-0.017548	-0.072327	-0.003815	0.002899
44.252	-0.00351	0.15381	0.095825	0.025482	0.006256	-0.049133	0.046234	-0.000305	-0.011597	0.032959	0.088806	-0.019531	-0.037537	0.39902	-0.032654	0.78278	0.027161	-0.074615	0.44311	-0.27634	0.072784	-0.12665	0.19119	-0.032196	0.027771	-0.010376	0.16571	-0.004883	0.008087	-0.039368	-0.007019	-0.002594
44.253	0.005035	0.09079	0.049438	0.012512	0.003815	-0.03479	0.11322	-0.005646	0.060425	-0.001221	0.027466	-0.001984	-0.039825	0.023651	-0.076599	0.1088	0.02243	-0.078125	0.57785	-0.19028	0.074921	-0.12543	0.18524	-0.048676	0.026703	0.002289	-0.20264	-0.003815	0.06073	-0.034943	-0.005341	-0.001221
44.254	0.01236	0.03006	0.058289	-0.005035	0.035706	-0.000305	0.080109	-0.005341	0.040588	-0.026245	-0.076599	0.009766	0.050659	-0.3093	-0.090485	0.05249	0.031586	-0.085449	0.55512	0.045776	0.085754	-0.1413	0.15015	-0.028992	0.02182	0.001678	-0.61325	-0.008698	-0.003662	0.011597	-0.005798	-0.003662
44.255	0.02182	-0.014343	-0.057983	0.00412	0.075226	-0.01358	-0.00946	0.010529	-0.003662	-0.030975	-0.21591	0.020294	0.072784	-0.42099	0.040894	-0.65384	0.018005	-0.17929	0.19424	0.23911	0.08316	-0.14221	0.13153	-0.017548	0.031128	-0.000458	-0.30991	-0.007629	0.000763	0.017548	-0.001678	-0.01358
44.256	0.008087	-0.033875	0.052643	0.009003	0.049896	-0.007019	-0.004578	0.007782	-0.013275	-0.058441	-0.088806	-0.049133	0.04715	-0.52139	0.095673	-0.10391	0.000763	-0.15182	0.011902	0.18906	0.069427	-0.15366	0.1207	-0.06424	0.030975	-0.004425	-0.10391	-0.008545	-0.081482	-0.050049	0	-0.019379
44.257	0.009766	-0.014191	0.023499	0.009308	0.02182	0.001526	-0.009613	0.00412	0.000458	-0.019226	-0.034332	-0.021973	-0.005798	-0.57434	0.070648	0.39017	-0.009155	-0.12711	-0.020599	0.027618	0.068207	-0.17746	0.14053	-0.077362	0.024414	0.001526	0.012512	-0.00824	-0.081635	-0.10498	-0.003662	-0.021667
44.258	0.010223	-0.005493	0.015259	0.007019	0.019226	-0.007935	-0.001068	0.01358	0.033112	-0.021973	-0.029449	0.002899	-0.040436	-0.43732	-0.088501	-0.018463	-0.01236	-0.088654	-0.33463	-0.002899	0.063324	-0.20096	0.13397	-0.097198	0.016174	-0.017548	0.018463	-0.004272	-0.037994	-0.11231	-0.003052	-0.02121
44.259	-0.001984	0.033722	-0.019989	0.002594	0.017395	0.010223	0.013885	0.024719	0.000153	-0.009918	-0.031586	-0.011444	0.011139	-0.060425	-0.098572	0.079803	-0.02655	-0.10223	-0.34576	-0.044403	0.064392	-0.22858	0.11536	-0.084991	0.004883	-0.007935	0.052032	-0.005035	-0.058594	-0.042572	-0.007477	-0.019989
44.26	0.005188	0.041962	-0.040588	0.008392	0.004425	0.018005	-0.005951	0.041656	-0.041656	0.06897	-0.026245	-0.019073	-0.015717	0.10315	-0.017242	-0.58304	-0.02533	-0.074463	-0.21286	-0.025482	0.048065	-0.25253	0.10025	-0.074005	0.020294	-0.007324	0.031586	-0.001984	-0.072479	0.069885	-0.003204	-0.015259
44.261	0.001221	0.043488	-0.055389	0.003662	0.016785	0.012207	-0.009003	0.031433	0.015259	0.054474	-0.040588	-0.000763	-0.022125	0.056305	0.052185	0.45258	-0.027618	-0.087433	-0.24277	-0.014954	0.045166	-0.28366	0.1088	-0.058441	0.016174	-0.003662	-0.028687	-0.008087	-0.089111	0.048981	-0.001678	-0.013428
44.262	0.017242	0.081177	-0.08728	0.025177	0.021973	0.013733	-0.039978	-0.002136	0.10971	0.039063	-0.065002	-0.00946	-0.019836	0.047607	-0.034332	-0.12146	-0.017853	-0.10468	-0.26825	0.007935	0.029907	-0.31769	0.14755	-0.067596	0.011597	0.003052	0.079651	-0.005188	-0.16617	0.00351	0	-0.019684
44.263	0.013275	0.11154	-0.089874	0.011902	0.023499	-0.014648	-0.10834	-0.005341	0.14358	0.0737	-0.14847	0.018921	-0.096283	-0.11292	-0.050964	-0.16022	-0.00946	-0.090027	-0.39032	0.011597	0.029602	-0.336	0.10849	-0.041351	0.008698	0.000916	0.084534	-0.001221	-0.13153	-0.070038	-0.003052	-0.013733
44.264	0.01358	0.087128	-0.048065	0.015259	0.012512	0.023346	-0.18707	-0.002136	0.11917	-0.007935	-0.097961	0.004425	-0.11215	-0.12207	-0.036163	0.001526	0.026245	-0.065613	-0.26352	-0.043182	0.005188	-0.35004	0.14038	-0.022583	-0.003815	-0.000153	0.21454	-0.006409	0.11459	-0.062714	-0.001984	-0.018616
44.265	0.005035	0.078125	-0.056763	-0.003815	0.019226	0.00885	-0.19531	-0.027618	0.31525	-0.004578	-0.013123	0.010986	-0.098114	0.00473	-0.028076	0.13046	0.045319	-0.065765	0.42236	-0.036316	-0.008392	-0.42297	0.10803	-0.023041	0.005951	-0.008087	0.28702	0.006866	0.13947	-0.077667	-0.001984	-0.0177
44.266	-0.007629	0.066223	-0.030823	-0.007324	0.015259	0.010834	-0.069275	-0.030518	0.25787	-0.033264	0.090637	-0.001831	-0.075531	0.097504	-0.056305	-0.019684	0.054626	-0.051422	0.11826	0.045776	-0.017242	-0.47333	0.11398	-0.043488	-0.001221	-0.005798	0.059967	-0.001984	0.095215	-0.082092	-0.001831	-0.013123
44.267	-0.011902	0.067749	-0.028839	-0.003662	0.005035	0.033417	-0.001526	-0.012665	0.056305	-0.040131	0.19196	0.004883	0.010986	0.080261	0.032959	-0.023804	0.044708	-0.10757	0.037994	0.050812	-0.013428	-0.55237	0.11704	-0.038605	-0.003052	-0.007019	-0.19745	-0.002136	0.031281	-0.057068	-0.002136	-0.015106
44.268	-0.004425	0.064392	0.008545	-0.007172	-0.009003	0.045929	-0.029297	-0.018158	0.080414	-0.029449	0.18616	0.006866	0.084839	0.050812	0.064392	-0.024261	0.032654	-0.067902	0.04425	0.013275	-0.007324	-0.56641	0.10956	-0.044861	-0.005951	-0.00885	-0.31982	-0.001984	-0.010834	-0.002899	-0.001831	-0.022278
